<?xml version="1.0" encoding="UTF-8" standalone="no"?>
<svg
   xmlns:dc="http://purl.org/dc/elements/1.1/"
   xmlns:cc="http://creativecommons.org/ns#"
   xmlns:rdf="http://www.w3.org/1999/02/22-rdf-syntax-ns#"
   xmlns:svg="http://www.w3.org/2000/svg"
   xmlns="http://www.w3.org/2000/svg"
   xmlns:sodipodi="http://sodipodi.sourceforge.net/DTD/sodipodi-0.dtd"
   xmlns:inkscape="http://www.inkscape.org/namespaces/inkscape"
   version="1.1"
   x="0px"
   y="0px"
   viewBox="0 0 500 500"
   xml:space="preserve"
   id="svg26"
   sodipodi:docname="b1-img.svg"
   width="500"
   height="500"
   inkscape:version="1.0.1 (1.0.1+r75)"><metadata
     id="metadata32"><rdf:RDF><cc:Work
         rdf:about=""><dc:format>image/svg+xml</dc:format><dc:type
           rdf:resource="http://purl.org/dc/dcmitype/StillImage" /><dc:title></dc:title></cc:Work></rdf:RDF></metadata><defs
     id="defs30" /><sodipodi:namedview
     pagecolor="#ffffff"
     bordercolor="#666666"
     borderopacity="1"
     objecttolerance="10"
     gridtolerance="10"
     guidetolerance="10"
     inkscape:pageopacity="0"
     inkscape:pageshadow="2"
     inkscape:window-width="1600"
     inkscape:window-height="867"
     id="namedview28"
     showgrid="false"
     inkscape:zoom="0.51928154"
     inkscape:cx="112.12065"
     inkscape:cy="477.65488"
     inkscape:window-x="0"
     inkscape:window-y="0"
     inkscape:window-maximized="1"
     inkscape:current-layer="svg26"
     inkscape:document-rotation="0" /><g
     id="g867"
     transform="matrix(7.861143,0,0,7.861143,-2.1186477,-1.556576)"
     style="fill:#1f2937;fill-opacity:1"><path
       d="m 43.097,26 c 2.488,0 4.895,-0.497 6.986,-1.439 0.883,0.26 1.786,0.392 2.691,0.392 C 57.861,24.953 62,20.98 62,16.096 62,14.074 61.273,12.112 59.948,10.537 59.126,5.648 54.027,2 47.936,2 45.688,2 43.51,2.5 41.609,3.449 40.687,3.182 39.724,3.048 38.743,3.048 c -4.82,0 -8.742,3.269 -8.742,7.286 0,1.052 0.273,2.092 0.796,3.042 C 30.268,14.41 30,15.499 30,16.619 30,21.792 35.875,26 43.097,26 Z M 32.781,12.793 C 32.263,12.027 32,11.2 32,10.333 c 0,-2.915 3.024,-5.286 6.742,-5.286 0.913,0 1.802,0.144 2.644,0.426 0.262,0.089 0.55,0.063 0.795,-0.068 C 43.878,4.486 45.868,4 47.936,4 c 5.217,0 9.549,3.053 10.076,7.102 0.025,0.202 0.112,0.39 0.249,0.541 1.121,1.243 1.739,2.824 1.739,4.452 0,3.781 -3.241,6.857 -7.226,6.857 -0.82,0 -1.641,-0.138 -2.438,-0.41 -0.247,-0.084 -0.521,-0.067 -0.758,0.047 C 47.672,23.512 45.431,24 43.097,24 36.978,24 32,20.689 32,16.619 c 0,-0.945 0.271,-1.868 0.807,-2.744 0.204,-0.334 0.194,-0.757 -0.026,-1.082 z"
       id="path2"
       style="fill:#1f2937;fill-opacity:1" /><path
       d="m 26,39 c 2.206,0 4,-1.794 4,-4 0,-2.206 -1.794,-4 -4,-4 -2.206,0 -4,1.794 -4,4 0,2.206 1.794,4 4,4 z m 0,-6 c 1.103,0 2,0.897 2,2 0,1.103 -0.897,2 -2,2 -1.103,0 -2,-0.897 -2,-2 0,-1.103 0.897,-2 2,-2 z"
       id="path4"
       style="fill:#1f2937;fill-opacity:1" /><path
       d="M 48,30 H 32 c -0.553,0 -1,0.448 -1,1 v 7 c 0,0.552 0.447,1 1,1 h 21 c 0.553,0 1,-0.448 1,-1 v -2 c 0,-3.309 -2.691,-6 -6,-6 z m 4,7 H 33 v -5 h 15 c 2.206,0 4,1.794 4,4 z"
       id="path6"
       style="fill:#1f2937;fill-opacity:1" /><path
       d="m 32.143,62 c 11.348,0 21.598,-6.293 26.749,-16.423 0.22,-0.433 0.097,-0.962 -0.292,-1.253 -0.388,-0.291 -0.931,-0.261 -1.285,0.072 -0.74,0.696 -1.514,1.341 -2.314,1.947 V 41 c 0,-0.552 -0.447,-1 -1,-1 H 21 V 30 c 0,-0.552 -0.447,-1 -1,-1 h -4 c -0.553,0 -1,0.448 -1,1 v 9.741 C 11.937,35.252 10.143,29.832 10.143,24 c 0,-4.451 1.021,-8.714 3.033,-12.67 0.22,-0.434 0.097,-0.962 -0.292,-1.254 C 12.496,9.785 11.953,9.815 11.599,10.148 5.501,15.882 2.143,23.643 2.143,32 c 0,16.542 13.458,30 30,30 z M 17,31 h 2 v 10 c 0,0.552 0.447,1 1,1 h 33 v 5.728 c -0.652,0.41 -1.319,0.791 -2,1.144 V 48 c 0,-2.206 -1.794,-4 -4,-4 H 23 c -1.167,0 -2.227,0.501 -2.966,1.332 -1.086,-0.924 -2.1,-1.929 -3.034,-3.005 z m 32,17 v 1.805 C 45.598,51.239 41.919,52 38.143,52 31.966,52 26.254,49.986 21.618,46.585 21.98,46.226 22.462,46 23,46 h 24 c 1.103,0 2,0.897 2,2 z M 9.264,15.848 C 8.519,18.479 8.143,21.205 8.143,24 c 0,16.542 13.458,30 30,30 5.692,0 11.183,-1.598 15.92,-4.574 C 48.814,56.054 40.822,60 32.143,60 c -15.439,0 -28,-12.561 -28,-28 0,-5.894 1.79,-11.47 5.121,-16.152 z"
       id="path8"
       style="fill:#1f2937;fill-opacity:1" /><polygon
       points="51,10 49,10 49,12 51,12 51,14 53,14 53,12 55,12 55,10 53,10 53,8 51,8 "
       id="polygon10"
       style="fill:#1f2937;fill-opacity:1" /><path
       d="m 40.121,19.364 c 0.188,0.188 0.441,0.293 0.707,0.293 0.266,0 0.52,-0.105 0.707,-0.293 l 4.243,-4.242 c 0.566,-0.567 0.879,-1.32 0.879,-2.122 0,-0.802 -0.312,-1.555 -0.879,-2.121 -1.169,-1.169 -3.072,-1.171 -4.243,0 l -0.707,0.707 -0.707,-0.707 c -1.17,-1.17 -3.072,-1.169 -4.242,0 C 35.312,11.445 35,12.199 35,13 c 0,0.801 0.312,1.555 0.879,2.121 z M 37.293,12.293 C 37.488,12.098 37.744,12 38,12 c 0.256,0 0.512,0.098 0.707,0.292 l 1.414,1.414 c 0.391,0.391 1.023,0.391 1.414,0 l 1.414,-1.414 c 0.392,-0.39 1.025,-0.389 1.415,0 0.189,0.188 0.293,0.439 0.293,0.707 0,0.268 -0.104,0.518 -0.293,0.707 l -3.536,3.536 -3.535,-3.536 C 37.104,13.518 37,13.267 37,13 c 0,-0.267 0.104,-0.518 0.293,-0.707 z"
       id="path12"
       style="fill:#1f2937;fill-opacity:1" /><path
       d="m 47,20 v 0 c 0.552,0 1,-0.448 1,-1 v 0 c 0,-0.552 -0.448,-1 -1,-1 v 0 c -0.552,0 -1,0.448 -1,1 v 0 c 0,0.552 0.448,1 1,1 z"
       id="path14"
       style="fill:#1f2937;fill-opacity:1" /><path
       d="m 51,20 v 0 c 0.552,0 1,-0.448 1,-1 v 0 c 0,-0.552 -0.448,-1 -1,-1 v 0 c -0.552,0 -1,0.448 -1,1 v 0 c 0,0.552 0.448,1 1,1 z"
       id="path16"
       style="fill:#1f2937;fill-opacity:1" /><path
       d="m 55,20 v 0 c 0.552,0 1,-0.448 1,-1 v 0 c 0,-0.552 -0.448,-1 -1,-1 v 0 c -0.552,0 -1,0.448 -1,1 v 0 c 0,0.552 0.448,1 1,1 z"
       id="path18"
       style="fill:#1f2937;fill-opacity:1" /><path
       d="m 27,27 c 1.654,0 3,-1.346 3,-3 0,-1.654 -1.346,-3 -3,-3 -1.654,0 -3,1.346 -3,3 0,1.654 1.346,3 3,3 z m 0,-4 c 0.552,0 1,0.449 1,1 0,0.551 -0.448,1 -1,1 -0.552,0 -1,-0.449 -1,-1 0,-0.551 0.448,-1 1,-1 z"
       id="path20"
       style="fill:#1f2937;fill-opacity:1" /></g></svg>
