<?xml version="1.0" encoding="UTF-8" standalone="no"?>
<svg
   xmlns:dc="http://purl.org/dc/elements/1.1/"
   xmlns:cc="http://creativecommons.org/ns#"
   xmlns:rdf="http://www.w3.org/1999/02/22-rdf-syntax-ns#"
   xmlns:svg="http://www.w3.org/2000/svg"
   xmlns="http://www.w3.org/2000/svg"
   xmlns:sodipodi="http://sodipodi.sourceforge.net/DTD/sodipodi-0.dtd"
   xmlns:inkscape="http://www.inkscape.org/namespaces/inkscape"
   xml:space="preserve"
   version="1.1"
   style="image-rendering:optimizeQuality;shape-rendering:geometricPrecision;text-rendering:geometricPrecision"
   viewBox="0 0 500 500"
   x="0px"
   y="0px"
   fill-rule="evenodd"
   clip-rule="evenodd"
   id="svg22"
   sodipodi:docname="b2-img.svg"
   width="500"
   height="500"
   inkscape:version="1.0.1 (1.0.1+r75)"><metadata
     id="metadata26"><rdf:RDF><cc:Work
         rdf:about=""><dc:format>image/svg+xml</dc:format><dc:type
           rdf:resource="http://purl.org/dc/dcmitype/StillImage" /><dc:title></dc:title></cc:Work></rdf:RDF></metadata><sodipodi:namedview
     pagecolor="#ffffff"
     bordercolor="#666666"
     borderopacity="1"
     objecttolerance="10"
     gridtolerance="10"
     guidetolerance="10"
     inkscape:pageopacity="0"
     inkscape:pageshadow="2"
     inkscape:window-width="1600"
     inkscape:window-height="867"
     id="namedview24"
     showgrid="false"
     inkscape:zoom="0.98947368"
     inkscape:cx="327.55537"
     inkscape:cy="215.64234"
     inkscape:window-x="0"
     inkscape:window-y="0"
     inkscape:window-maximized="1"
     inkscape:current-layer="svg22"
     inkscape:document-rotation="0" /><defs
     id="defs4"><style
       type="text/css"
       id="style2">
   
    .fil0 {fill:black}
   
  </style></defs><g
     id="g16"
     transform="matrix(1.8356016,0,0,1.8356016,2.1937856,75.617849)"
     style="fill:#f3f4f6;fill-opacity:1"><path
       class="fil0"
       d="m 105,107 c -5,5 -9,5 -13,4 0,-2 0,-4 -1,-5 l 3,-5 -5,2 c -1,-1 -3,-1 -5,-1 l -2,-4 v 6 c -2,1 -3,3 -3,5 -4,-1 -8,-3 -10,-9 0,0 -3,-1 -7,-1 -4,-45 32,-84 77,-84 23,0 44,9 58,25 -5,8 -12,10 -17,10 0,-4 -2,-7 -4,-9 l 3,-9 -7,7 c -2,-1 -5,-1 -8,0 l -5,-6 2,9 c -2,2 -3,5 -3,9 -6,0 -13,-1 -19,-10 0,0 -44,3 -53,26 0,0 21,-11 26,4 0,0 14,-4 20,9 0,0 13,-11 21,8 8,-4 16,10 18,16 2,-9 6,-17 17,-18 7,-19 20,-9 20,-9 1,-4 4,-7 6,-8 7,22 4,46 -9,66 -6,-4 -18,-4 -18,-4 -2,4 -4,5 -7,5 0,-2 0,-3 -1,-3 l 1,-4 -3,3 c -1,-1 -2,-1 -3,0 l -2,-2 1,3 c -1,1 -1,2 -1,3 -2,1 -5,0 -7,-3 0,0 -17,2 -20,11 0,0 8,-5 10,1 0,0 5,-2 8,3 0,0 4,-4 8,2 3,-1 6,4 7,6 1,-3 2,-6 6,-7 2,-7 7,-4 7,-4 2,-5 8,-4 8,-4 0,-3 2,-4 5,-4 -14,21 -38,34 -65,34 -24,0 -46,-11 -60,-29 3,-4 6,-8 12,-7 8,-11 14,-3 14,-3 6,-7 14,-3 14,-3 5,-9 17,1 17,1 -3,-15 -31,-23 -31,-23 z M 55,99 c -9,0 -18,2 -23,8 0,0 14,-3 15,7 0,0 9,0 11,9 0,0 1,-1 2,-1 11,33 43,56 79,56 59,0 99,-57 81,-112 4,-1 8,0 8,0 3,-15 26,-5 26,-5 C 246,45 219,40 206,39 190,20 166,8 139,8 90,8 51,50 55,99 Z m 16,32 c 4,0 7,6 7,11 -2,-4 -5,-7 -7,-11 z"
       id="path6"
       style="fill:#f3f4f6;fill-opacity:1" /><path
       class="fil0"
       d="m 41,41 c -1,3 -4,4 -6,4 0,-1 -1,-2 -2,-3 l 1,-3 -2,2 c -1,0 -2,0 -3,1 l -2,-2 1,3 c -1,1 -1,2 -1,3 -2,0 -5,0 -7,-3 0,0 -17,2 -20,11 0,0 8,-5 10,1 0,0 5,-2 8,3 0,0 4,-5 8,2 3,-1 6,4 7,6 0,-3 2,-7 6,-7 2,-7 7,-4 7,-4 2,-5 7,-5 7,-5 1,-5 10,-2 10,-2 -5,-8 -22,-7 -22,-7 z"
       id="path8"
       style="fill:#f3f4f6;fill-opacity:1" /><path
       class="fil0"
       d="m 249,2 c -2,3 -5,4 -7,5 0,-2 0,-3 -1,-4 l 1,-3 -3,2 c -1,0 -2,0 -3,1 l -2,-2 1,3 c -1,1 -1,2 -1,3 -2,1 -5,0 -7,-3 0,0 -17,2 -20,11 0,0 8,-5 10,1 0,0 5,-2 8,3 0,0 4,-5 8,2 3,-1 6,4 7,6 1,-3 2,-7 6,-7 2,-7 7,-4 7,-4 2,-5 8,-4 8,-4 1,-6 9,-3 9,-3 -4,-8 -21,-7 -21,-7 z"
       id="path10"
       style="fill:#f3f4f6;fill-opacity:1" /><path
       class="fil0"
       d="m 40,173 c -1,2 -3,3 -4,3 0,-1 -1,-2 -1,-2 v -2 l -1,1 c -1,0 -2,0 -2,1 l -2,-2 1,2 c -1,1 -1,2 -1,3 -1,0 -3,0 -5,-3 0,0 -11,2 -13,8 0,0 5,-3 6,0 0,0 4,-1 6,3 0,0 3,-3 5,1 2,-1 5,3 5,4 1,-2 2,-4 4,-4 2,-6 5,-3 5,-3 2,-4 6,-3 6,-3 0,-4 6,-2 6,-2 -3,-5 -15,-5 -15,-5 z"
       id="path12"
       style="fill:#f3f4f6;fill-opacity:1" /><path
       class="fil0"
       d="m 244,162 c -3,3 -6,3 -8,2 0,-1 0,-2 -1,-3 l 2,-3 -3,1 c -1,0 -2,-1 -3,0 l -1,-3 v 3 c -1,1 -2,2 -2,3 -2,0 -5,-1 -6,-5 0,0 -16,-3 -22,4 0,0 9,-1 9,4 0,0 6,0 7,6 0,0 5,-3 7,4 3,0 5,6 5,8 1,-3 4,-6 7,-5 5,-6 9,-1 9,-1 3,-5 8,-3 8,-3 3,-5 10,1 10,1 -2,-9 -18,-13 -18,-13 z"
       id="path14"
       style="fill:#f3f4f6;fill-opacity:1" /></g></svg>
