<?xml version="1.0" encoding="UTF-8" standalone="no"?>
<svg
   xmlns:dc="http://purl.org/dc/elements/1.1/"
   xmlns:cc="http://creativecommons.org/ns#"
   xmlns:rdf="http://www.w3.org/1999/02/22-rdf-syntax-ns#"
   xmlns:svg="http://www.w3.org/2000/svg"
   xmlns="http://www.w3.org/2000/svg"
   xmlns:sodipodi="http://sodipodi.sourceforge.net/DTD/sodipodi-0.dtd"
   xmlns:inkscape="http://www.inkscape.org/namespaces/inkscape"
   width="410.953"
   height="50"
   viewBox="0 0 108.73132 13.229167"
   version="1.1"
   id="svg8"
   sodipodi:docname="brand.svg"
   inkscape:version="1.0.1 (1.0.1+r75)">
  <defs
     id="defs2" />
  <sodipodi:namedview
     id="base"
     pagecolor="#ffffff"
     bordercolor="#666666"
     borderopacity="1.0"
     inkscape:pageopacity="0.0"
     inkscape:pageshadow="2"
     inkscape:zoom="2.8"
     inkscape:cx="102.28549"
     inkscape:cy="47.093639"
     inkscape:document-units="px"
     inkscape:current-layer="layer1"
     inkscape:document-rotation="0"
     showgrid="false"
     units="px"
     inkscape:window-width="1600"
     inkscape:window-height="867"
     inkscape:window-x="0"
     inkscape:window-y="0"
     inkscape:window-maximized="1"
     inkscape:snap-global="false" />
  <metadata
     id="metadata5">
    <rdf:RDF>
      <cc:Work
         rdf:about="">
        <dc:format>image/svg+xml</dc:format>
        <dc:type
           rdf:resource="http://purl.org/dc/dcmitype/StillImage" />
        <dc:title></dc:title>
      </cc:Work>
    </rdf:RDF>
  </metadata>
  <g
     inkscape:label="Layer 1"
     inkscape:groupmode="layer"
     id="layer1">
    <rect
       style="fill:#1f2937;stroke:none;stroke-width:0.587283;stroke-opacity:1;fill-opacity:1"
       id="rect861"
       width="60.45232"
       height="13.229167"
       x="50.083191"
       y="2.2167968e-07" />
    <g
       aria-label="Dreams &amp; Nightmares"
       id="text835"
       style="font-style:normal;font-weight:normal;font-size:10.5833px;line-height:1.25;font-family:sans-serif;letter-spacing:0px;word-spacing:0px;fill:#000000;fill-opacity:1;stroke:none;stroke-width:0.264583">
      <path
         d="m 7.995676,5.4292539 q 0,2.1801598 -1.2276628,3.037407 Q 5.6356001,9.2604084 3.6565231,9.2604084 H 0.66144931 V 9.0593257 H 1.3599471 V 2.0531813 H 0.66144931 V 1.8520987 H 3.9316889 q 2.0319935,0 3.0479903,0.8360806 Q 7.995676,3.5136767 7.995676,5.4292539 Z M 3.4236905,9.0593257 h 0.4021654 q 1.0689133,0 1.5239951,-0.7514143 Q 5.8155162,7.5459139 5.8155162,5.7679195 V 5.1540881 q 0,-2.3812424 -0.9101637,-2.8680742 Q 4.4714372,2.0531813 3.6776897,2.0531813 H 3.4236905 Z"
         style="font-style:normal;font-variant:normal;font-weight:normal;font-stretch:normal;font-size:10.5833px;font-family:'Abril Fatface';-inkscape-font-specification:'Abril Fatface, Normal';font-variant-ligatures:normal;font-variant-caps:normal;font-variant-numeric:normal;font-variant-east-asian:normal;stroke-width:0.264583;fill:#1f2937;fill-opacity:1"
         id="path834" />
      <path
         d="m 12.079342,4.5190902 q -0.391583,0 -0.687915,0.5079983 -0.296332,0.5079984 -0.296332,1.2064962 V 9.069909 h 0.751414 V 9.2604084 H 8.5445195 V 9.069909 H 9.1266009 V 4.4132572 H 8.5445195 V 4.2227578 h 2.5505755 v 1.0159967 q 0.137583,-0.5397482 0.529165,-0.8254973 0.391582,-0.2963324 0.888997,-0.2963324 0.497415,0 0.804331,0.2857491 0.317499,0.2751658 0.317499,0.7937474 0,0.5079984 -0.232833,0.7831642 -0.232833,0.2751658 -0.719664,0.2751658 -0.476249,0 -0.709081,-0.317499 -0.22225,-0.317499 -0.05292,-0.8784139 h 0.380999 Q 12.566173,4.5190902 12.079342,4.5190902 Z"
         style="font-style:normal;font-variant:normal;font-weight:normal;font-stretch:normal;font-size:10.5833px;font-family:'Abril Fatface';-inkscape-font-specification:'Abril Fatface, Normal';font-variant-ligatures:normal;font-variant-caps:normal;font-variant-numeric:normal;font-variant-east-asian:normal;stroke-width:0.264583;fill:#1f2937;fill-opacity:1"
         id="path836" />
      <path
         d="m 16.495554,9.3662414 q -1.365246,0 -2.05316,-0.6984978 -0.677331,-0.7090811 -0.677331,-1.9579104 0,-1.2594127 0.761997,-1.9261605 0.772581,-0.6667479 1.957911,-0.6667479 2.402409,0 2.307159,2.4129923 h -2.98449 v 0.4127487 q 0,1.0371633 0.264582,1.5663283 0.264583,0.529165 0.920747,0.529165 1.227663,0 1.608662,-1.3123291 l 0.190499,0.03175 q -0.201083,0.7619975 -0.730248,1.1853295 -0.518581,0.423332 -1.566328,0.423332 z M 15.818223,6.3182511 h 1.09008 V 5.7996694 q 0,-0.8572473 -0.105833,-1.1641629 -0.09525,-0.317499 -0.402166,-0.317499 -0.296332,0 -0.444498,0.3386656 -0.137583,0.3280822 -0.137583,1.1429963 z"
         style="font-style:normal;font-variant:normal;font-weight:normal;font-stretch:normal;font-size:10.5833px;font-family:'Abril Fatface';-inkscape-font-specification:'Abril Fatface, Normal';font-variant-ligatures:normal;font-variant-caps:normal;font-variant-numeric:normal;font-variant-east-asian:normal;stroke-width:0.264583;fill:#1f2937;fill-opacity:1"
         id="path838" />
      <path
         d="m 21.709151,6.773333 h 0.306916 V 5.9584189 q 0,-1.0054135 -0.116416,-1.344079 -0.105833,-0.3492489 -0.423332,-0.3492489 -0.1905,0 -0.349249,0.105833 -0.148166,0.09525 -0.148166,0.2751658 0,0.1693328 0.0635,0.3492488 h 0.264583 q 0.08467,0.2222493 0.08467,0.5397483 0,0.3069157 -0.264582,0.5397483 -0.264583,0.2222493 -0.666748,0.2222493 -0.910164,0 -0.910164,-0.8784139 0,-1.3017458 2.21191,-1.3017458 1.259413,0 1.735661,0.4339153 0.486832,0.4233319 0.486832,1.5663283 v 2.1484098 q 0,0.5503316 0.306915,0.5503316 0.359833,0 0.423332,-1.0900798 l 0.15875,0.010583 q -0.04233,0.9313303 -0.349249,1.2805792 -0.306916,0.3492489 -1.005413,0.3492489 -1.269996,0 -1.460496,-0.7831642 -0.137583,0.4021654 -0.412748,0.5926648 -0.275166,0.1904994 -0.804331,0.1904994 -1.566329,0 -1.566329,-1.2805793 0,-0.7514142 0.592665,-1.02658 0.603248,-0.2857491 1.841494,-0.2857491 z m -0.423332,1.3017458 q 0,0.5503316 0.05292,0.7090811 0.0635,0.1587495 0.222249,0.1587495 0.169333,0 0.306916,-0.2645825 0.148166,-0.2751658 0.148166,-0.7514143 V 6.9426658 h -0.07408 q -0.656165,0 -0.656165,0.9630802 z"
         style="font-style:normal;font-variant:normal;font-weight:normal;font-stretch:normal;font-size:10.5833px;font-family:'Abril Fatface';-inkscape-font-specification:'Abril Fatface, Normal';font-variant-ligatures:normal;font-variant-caps:normal;font-variant-numeric:normal;font-variant-east-asian:normal;stroke-width:0.264583;fill:#1f2937;fill-opacity:1"
         id="path840" />
      <path
         d="m 24.977574,4.2227578 h 2.550575 v 0.9736635 q 0.349249,-1.0794965 1.534579,-1.0794965 1.195912,0 1.449912,1.1429963 0.370415,-1.1429963 1.555745,-1.1429963 1.555745,0 1.555745,1.767411 V 9.069909 h 0.592664 V 9.2604084 H 31.28522 V 9.069909 h 0.370416 V 5.6303366 q 0,-0.8043307 -0.137583,-0.9419136 -0.0635,-0.0635 -0.169333,-0.0635 -0.306915,0 -0.539748,0.4127486 -0.232833,0.4127487 -0.232833,1.0477467 V 9.069909 h 0.380999 V 9.2604084 H 28.23723 V 9.069909 h 0.370416 V 5.6303366 q 0,-0.8043307 -0.137583,-0.9419136 -0.0635,-0.0635 -0.169333,-0.0635 -0.296332,0 -0.539748,0.4550818 -0.232833,0.4444986 -0.232833,1.0689133 V 9.069909 h 0.380999 V 9.2604084 H 24.977574 V 9.069909 h 0.582081 V 4.4132572 h -0.582081 z"
         style="font-style:normal;font-variant:normal;font-weight:normal;font-stretch:normal;font-size:10.5833px;font-family:'Abril Fatface';-inkscape-font-specification:'Abril Fatface, Normal';font-variant-ligatures:normal;font-variant-caps:normal;font-variant-numeric:normal;font-variant-east-asian:normal;stroke-width:0.264583;fill:#1f2937;fill-opacity:1"
         id="path842" />
      <path
         d="M 34.626069,9.3662414 V 7.4718308 h 0.126999 q 0.275166,0.920747 0.740831,1.2911625 0.465665,0.3704155 1.164163,0.3704155 1.079497,0 1.079497,-0.6879145 0,-0.2963324 -0.264583,-0.4444986 Q 37.060228,7.7681632 36.414646,7.6411636 35.694982,7.4506642 35.20815,7.1331652 34.626069,6.7521664 34.626069,5.926669 q 0,-0.8254974 0.507998,-1.3123291 0.507998,-0.4974151 1.354662,-0.4974151 0.518582,0 1.068914,0.2434159 0.201082,0.084666 0.306915,0.084666 0.105833,0 0.179916,-0.074083 0.07408,-0.074083 0.179917,-0.2751658 h 0.116416 V 5.715003 h -0.127 q -0.539748,-1.3758289 -1.672161,-1.3758289 -0.497415,0 -0.740831,0.1799161 -0.243416,0.1693328 -0.243416,0.4339152 0,0.1587495 0.07408,0.2539992 0.07408,0.084666 0.116416,0.1269996 0.04233,0.042333 0.137583,0.09525 0.09525,0.042333 0.15875,0.074083 0.0635,0.021167 0.190499,0.0635 0.137583,0.042333 0.201083,0.052917 0.719664,0.1799161 1.037163,0.317499 0.317499,0.1269996 0.603248,0.317499 0.582082,0.4021654 0.582082,1.3017459 0,0.8889971 -0.529165,1.3546623 -0.529165,0.4550819 -1.449912,0.4550819 -0.656165,0 -1.269996,-0.3069157 -0.127,-0.084666 -0.201083,-0.084666 -0.232832,0 -0.455082,0.3915821 z"
         style="font-style:normal;font-variant:normal;font-weight:normal;font-stretch:normal;font-size:10.5833px;font-family:'Abril Fatface';-inkscape-font-specification:'Abril Fatface, Normal';font-variant-ligatures:normal;font-variant-caps:normal;font-variant-numeric:normal;font-variant-east-asian:normal;stroke-width:0.264583;fill:#1f2937;fill-opacity:1"
         id="path844" />
      <path
         d="m 46.217759,11.652234 q 0.518581,0 0.793747,-0.497415 0.285749,-0.497415 0.285749,-1.2276627 0,-0.7302477 -0.560915,-1.481662 -0.80433,0.9207471 -2.211909,0.9207471 -1.407579,0 -2.24366,-0.4762485 -0.825497,-0.4762485 -0.825497,-1.5028285 0,-0.7090811 0.380999,-1.1429964 0.380998,-0.4339153 1.280579,-0.634998 -0.931331,-0.8466639 -0.931331,-1.8414941 0,-1.0054135 0.698498,-1.5134119 0.709081,-0.5185816 1.756828,-0.5185816 1.047747,0 1.566328,0.3809987 0.529165,0.3809988 0.529165,1.0265801 0,1.1218298 -1.703911,1.7144946 0.211666,0.1375828 0.772581,0.4868317 1.174746,0.7619976 1.661578,1.2276628 0.15875,-0.7514143 0.179916,-1.5451618 H 46.810423 V 4.8154226 h 1.841495 v 0.2116659 h -0.740831 q -0.02117,0.9948302 -0.201083,1.7885777 0.455082,0.5079984 0.687914,0.9736636 0.232833,0.4656651 0.232833,1.1747462 0,1.142996 -0.804331,2.042577 -0.804331,0.89958 -1.830911,0.89958 -0.687914,0 -1.068913,-0.285749 -0.380999,-0.285749 -0.380999,-0.730247 0,-0.444499 0.243416,-0.698498 0.253999,-0.2434161 0.634998,-0.2434161 0.846664,0 0.846664,0.7619971 0,0.15875 -0.0635,0.380999 H 45.83676 q -0.1905,0.560915 0.380999,0.560915 z M 44.77843,9.0910756 q 1.12183,0 1.777994,-0.8678306 -0.486832,-0.5079983 -1.365245,-1.1006631 -1.513412,-0.9948302 -1.926161,-1.3546624 -0.158749,0.3386656 -0.158749,1.375829 0,1.0371633 0.412748,1.4922452 0.412749,0.4550819 1.259413,0.4550819 z M 44.587931,1.9579317 q -0.402166,0 -0.687915,0.2539991 -0.285749,0.2434159 -0.285749,0.7831642 0,0.5397483 0.253999,0.8889972 0.253999,0.3492489 0.973664,0.846664 0.444498,-0.2328326 0.550331,-0.5609149 0.116417,-0.3280823 0.116417,-0.9630803 0,-1.2488293 -0.920747,-1.2488293 z"
         style="font-style:normal;font-variant:normal;font-weight:normal;font-stretch:normal;font-size:10.5833px;font-family:'Abril Fatface';-inkscape-font-specification:'Abril Fatface, Normal';font-variant-ligatures:normal;font-variant-caps:normal;font-variant-numeric:normal;font-variant-east-asian:normal;stroke-width:0.264583;fill:#1f2937;fill-opacity:1"
         id="path846" />
      <path
         d="M 57.615476,2.0531813 V 9.2604084 H 56.133814 L 52.503742,2.4130135 v 6.6463122 h 0.582081 V 9.2604084 H 51.635911 V 9.0593257 h 0.582082 V 2.0531813 H 51.635911 V 1.8520987 h 2.920991 l 2.772825,5.3128164 V 2.0531813 H 56.747645 V 1.8520987 h 1.449912 v 0.2010826 z"
         style="fill:#ffffff"
         id="path848" />
      <path
         d="m 60.122892,3.4925101 q -0.560915,0 -0.804331,-0.2857491 -0.232833,-0.2857491 -0.232833,-0.7090811 0,-0.423332 0.254,-0.6984977 0.264582,-0.2751658 0.793747,-0.2751658 0.529165,0 0.804331,0.2539992 0.275166,0.2434158 0.275166,0.709081 0,0.4550819 -0.264583,0.7302477 -0.264582,0.2751658 -0.825497,0.2751658 z m -1.598078,0.7302477 h 2.592908 V 9.069909 h 0.592665 v 0.1904994 h -3.14324 V 9.069909 h 0.582081 V 4.4132572 h -0.624414 z"
         style="fill:#ffffff"
         id="path850" />
      <path
         d="m 66.159671,3.6724262 0.296333,-0.1799161 q 0.0635,-0.3280823 -0.253999,-0.3280823 -0.455082,0 -0.455082,0.6984978 0,0.2751658 0.07408,0.634998 0.804331,0.5397482 0.804331,1.3864122 0,0.8360807 -0.582082,1.3017459 -0.582081,0.4656652 -1.576912,0.4656652 -0.412748,0 -0.857247,-0.084666 -0.465665,0.2963323 -0.465665,0.4444985 0,0.1481662 0.677331,0.1481662 h 1.079497 q 2.402409,0 2.402409,1.7250779 0,0.9313299 -0.730248,1.4710789 -0.719664,0.550331 -2.254243,0.550331 -2.614075,0 -2.614075,-1.132413 0,-0.613831 0.814914,-0.8466637 l 0.634998,0.2857487 q -0.08467,0.306916 -0.08467,0.582082 0,0.910164 1.354662,0.910164 0.825498,0 1.269996,-0.306916 0.444499,-0.306916 0.444499,-0.761998 0,-0.455082 -0.275166,-0.613831 -0.264583,-0.1481662 -1.068913,-0.1481662 h -1.02658 q -0.857248,0 -1.227663,-0.2857491 -0.370416,-0.2857491 -0.370416,-0.6984978 0,-0.423332 0.264583,-0.6984978 0.264582,-0.2857491 0.941914,-0.6984977 -1.227663,-0.3492489 -1.227663,-1.6086616 0,-0.7937475 0.571498,-1.2805792 0.571498,-0.4868318 1.714494,-0.4868318 0.687915,0 1.174747,0.2645825 -0.0635,-0.2857491 -0.0635,-0.5185817 0,-0.5926648 0.317499,-0.8572473 0.317499,-0.2645825 0.709081,-0.2645825 0.391582,0 0.624415,0.211666 0.243416,0.2010827 0.243416,0.5609149 0,0.3598322 -0.1905,0.5397483 -0.190499,0.1693328 -0.465665,0.1693328 -0.264582,0 -0.444499,-0.1375829 -0.169332,-0.1481662 -0.179916,-0.4127487 z m -2.243659,1.979077 v 0.5714982 q 0,0.7090811 0.116416,0.9630803 0.127,0.2539992 0.370416,0.2539992 0.253999,0 0.359832,-0.2434159 0.116416,-0.2539992 0.116416,-1.0265801 V 5.6515032 q 0,-0.8254973 -0.105833,-1.0794965 -0.105833,-0.2645825 -0.359832,-0.2645825 -0.243416,0 -0.370416,0.2751658 -0.126999,0.2645825 -0.126999,1.0689132 z"
         style="fill:#ffffff"
         id="path852" />
      <path
         d="m 67.434796,1.3229337 h 2.550575 v 3.8734876 q 0.169333,-0.4868317 0.518582,-0.7831641 0.349249,-0.2963324 1.05833,-0.2963324 1.640411,0 1.640411,1.767411 V 9.069909 h 0.592665 V 9.2604084 H 70.800285 V 9.069909 H 71.2342 V 5.6303366 q 0,-0.634998 -0.08467,-0.814914 -0.08467,-0.1904994 -0.306916,-0.1904994 -0.338665,0 -0.603248,0.4444985 -0.253999,0.4444986 -0.253999,1.0794966 V 9.069909 h 0.455082 V 9.2604084 H 67.434796 V 9.069909 h 0.582081 V 1.5134331 h -0.582081 z"
         style="fill:#ffffff"
         id="path854" />
      <path
         d="M 74.413157,7.7469966 V 4.4132572 H 73.831075 V 4.2227578 h 0.582082 V 2.8575121 L 76.38165,2.3706803 v 1.8520775 h 1.375829 V 4.4132572 H 76.38165 v 3.5665719 q 0,0.4974151 0.09525,0.7302477 0.105833,0.2328326 0.423332,0.2328326 0.317499,0 0.550332,-0.317499 0.243416,-0.317499 0.317499,-0.8678305 l 0.179916,0.021167 q -0.08467,0.7302476 -0.465665,1.1641629 -0.380999,0.423332 -1.259413,0.423332 -0.878414,0 -1.344079,-0.3492489 -0.465665,-0.3492489 -0.465665,-1.2699959 z"
         style="fill:#ffffff"
         id="path856" />
      <path
         d="m 78.059437,4.2227578 h 2.550576 v 0.9736635 q 0.349248,-1.0794965 1.534578,-1.0794965 1.195913,0 1.449912,1.1429963 0.370416,-1.1429963 1.555745,-1.1429963 1.555745,0 1.555745,1.767411 V 9.069909 h 0.592665 V 9.2604084 H 84.367084 V 9.069909 h 0.370415 V 5.6303366 q 0,-0.8043307 -0.137583,-0.9419136 -0.0635,-0.0635 -0.169332,-0.0635 -0.306916,0 -0.539749,0.4127486 -0.232832,0.4127487 -0.232832,1.0477467 V 9.069909 h 0.380999 V 9.2604084 H 81.319094 V 9.069909 h 0.370415 V 5.6303366 q 0,-0.8043307 -0.137583,-0.9419136 -0.0635,-0.0635 -0.169333,-0.0635 -0.296332,0 -0.539748,0.4550818 -0.232832,0.4444986 -0.232832,1.0689133 V 9.069909 h 0.380998 V 9.2604084 H 78.059437 V 9.069909 h 0.582082 V 4.4132572 h -0.582082 z"
         style="fill:#ffffff"
         id="path858" />
      <path
         d="M 90.004504,6.773333 H 90.31142 V 5.9584189 q 0,-1.0054135 -0.116416,-1.344079 -0.105833,-0.3492489 -0.423332,-0.3492489 -0.1905,0 -0.349249,0.105833 -0.148166,0.09525 -0.148166,0.2751658 0,0.1693328 0.0635,0.3492488 h 0.264583 q 0.08467,0.2222493 0.08467,0.5397483 0,0.3069157 -0.264582,0.5397483 -0.264583,0.2222493 -0.666748,0.2222493 -0.910164,0 -0.910164,-0.8784139 0,-1.3017458 2.21191,-1.3017458 1.259412,0 1.735661,0.4339153 0.486832,0.4233319 0.486832,1.5663283 v 2.1484098 q 0,0.5503316 0.306915,0.5503316 0.359833,0 0.423332,-1.0900798 l 0.15875,0.010583 q -0.04233,0.9313303 -0.349249,1.2805792 -0.306916,0.3492489 -1.005413,0.3492489 -1.269996,0 -1.460496,-0.7831642 -0.137583,0.4021654 -0.412749,0.5926648 -0.275165,0.1904994 -0.80433,0.1904994 -1.566329,0 -1.566329,-1.2805793 0,-0.7514142 0.592665,-1.02658 0.603248,-0.2857491 1.841494,-0.2857491 z m -0.423332,1.3017458 q 0,0.5503316 0.05292,0.7090811 0.0635,0.1587495 0.222249,0.1587495 0.169333,0 0.306916,-0.2645825 Q 90.31142,8.4031611 90.31142,7.9269126 V 6.9426658 h -0.07408 q -0.656165,0 -0.656165,0.9630802 z"
         style="fill:#ffffff"
         id="path860" />
      <path
         d="m 96.807753,4.5190902 q -0.391582,0 -0.687915,0.5079983 -0.296332,0.5079984 -0.296332,1.2064962 V 9.069909 H 96.57492 V 9.2604084 H 93.272931 V 9.069909 h 0.582081 V 4.4132572 H 93.272931 V 4.2227578 h 2.550575 v 1.0159967 q 0.137583,-0.5397482 0.529165,-0.8254973 0.391582,-0.2963324 0.888997,-0.2963324 0.497415,0 0.804331,0.2857491 0.317499,0.2751658 0.317499,0.7937474 0,0.5079984 -0.232833,0.7831642 -0.232832,0.2751658 -0.719664,0.2751658 -0.476249,0 -0.709081,-0.317499 -0.22225,-0.317499 -0.05292,-0.8784139 h 0.380999 Q 97.294585,4.5190902 96.807753,4.5190902 Z"
         style="fill:#ffffff"
         id="path862" />
      <path
         d="m 101.22396,9.3662414 q -1.365242,0 -2.053156,-0.6984978 -0.677331,-0.7090811 -0.677331,-1.9579104 0,-1.2594127 0.761997,-1.9261605 0.77258,-0.6667479 1.95791,-0.6667479 2.40241,0 2.30716,2.4129923 h -2.98449 v 0.4127487 q 0,1.0371633 0.26458,1.5663283 0.26458,0.529165 0.92075,0.529165 1.22766,0 1.60866,-1.3123291 l 0.1905,0.03175 q -0.20108,0.7619975 -0.73025,1.1853295 -0.51858,0.423332 -1.56633,0.423332 z m -0.67733,-3.0479903 h 1.09008 V 5.7996694 q 0,-0.8572473 -0.10583,-1.1641629 -0.0952,-0.317499 -0.40217,-0.317499 -0.29633,0 -0.44449,0.3386656 -0.13759,0.3280822 -0.13759,1.1429963 z"
         style="fill:#ffffff"
         id="path864" />
      <path
         d="M 104.03763,9.3662414 V 7.4718308 h 0.127 q 0.27517,0.920747 0.74083,1.2911625 0.46567,0.3704155 1.16417,0.3704155 1.07949,0 1.07949,-0.6879145 0,-0.2963324 -0.26458,-0.4444986 -0.41275,-0.2328325 -1.05833,-0.3598321 -0.71966,-0.1904994 -1.2065,-0.5079984 -0.58208,-0.3809988 -0.58208,-1.2064962 0,-0.8254974 0.508,-1.3123291 0.508,-0.4974151 1.35466,-0.4974151 0.51858,0 1.06892,0.2434159 0.20108,0.084666 0.30691,0.084666 0.10584,0 0.17992,-0.074083 0.0741,-0.074083 0.17991,-0.2751658 h 0.11642 V 5.715003 h -0.127 q -0.53975,-1.3758289 -1.67216,-1.3758289 -0.49742,0 -0.74083,0.1799161 -0.24342,0.1693328 -0.24342,0.4339152 0,0.1587495 0.0741,0.2539992 0.0741,0.084666 0.11641,0.1269996 0.0423,0.042333 0.13759,0.09525 0.0952,0.042333 0.15874,0.074083 0.0635,0.021167 0.1905,0.0635 0.13759,0.042333 0.20109,0.052917 0.71966,0.1799161 1.03716,0.317499 0.3175,0.1269996 0.60325,0.317499 0.58208,0.4021654 0.58208,1.3017459 0,0.8889971 -0.52917,1.3546623 -0.52916,0.4550819 -1.44991,0.4550819 -0.65616,0 -1.26999,-0.3069157 -0.127,-0.084666 -0.20109,-0.084666 -0.23283,0 -0.45508,0.3915821 z"
         style="fill:#ffffff"
         id="path866" />
    </g>
  </g>
</svg>
